<?xml version="1.0" encoding="utf-8"?>
<!-- Generator: Adobe Illustrator 21.1.0, SVG Export Plug-In . SVG Version: 6.00 Build 0)  -->
<svg version="1.1" id="Layer_1" xmlns="http://www.w3.org/2000/svg" xmlns:xlink="http://www.w3.org/1999/xlink" x="0px" y="0px"
	 viewBox="0 0 353 102.8" style="enable-background:new 0 0 353 102.8;" xml:space="preserve">
<style type="text/css">
	.st0{fill:#2C497C;}
	.st1{fill:#F6F6F6;}
</style>
<g>
	<g>
		<path class="st0" d="M85.5,4.4v79.4H3.8V4.4H85.5 M86.5,3.4H2.8v81.4h83.7V3.4L86.5,3.4z"/>
	</g>
	<rect x="86.5" y="3.4" class="st0" width="262.7" height="81.4"/>
</g>
<g>
	<path class="st0" d="M74.4,27.6c-13.7,0-26.8,0.2-40-0.1c-5.7-0.1-9,2.4-11,7.5c-2.2,5.7-2.3,11.4-0.4,17.1
		c2.3,6.7,5.1,8.6,12.2,8.6c11,0,22,0,33,0c1.9,0,3.9,0,6,0c-4.9,12.6-22.1,20.7-36.6,17.8c-16.4-3.3-28.2-18.2-28-35.3
		C9.9,26.4,22,12.4,38.9,9.6C53.6,7.1,69.8,15.1,74.4,27.6z"/>
	<path class="st0" d="M52.6,52.6c-5.8,0-11.7,0.1-17.5,0c-6.1-0.1-9.6-3.2-9.7-8.4c-0.1-5.4,3-8.3,9.4-8.4c11.7-0.1,23.3-0.2,35,0
		c6.3,0.1,9.6,3.2,9.5,8.4c-0.1,5.2-3.7,8.3-9.7,8.4C63.9,52.6,58.2,52.6,52.6,52.6z M52.2,51.1c6,0,12,0.1,17.9,0
		c4.8-0.1,7.6-2.7,7.7-6.7c0.2-4.3-2.7-7.4-7.5-7.4c-12-0.2-23.9-0.2-35.9,0C29.6,37,26.7,40,26.8,44c0.1,4.1,3,7,7.9,7
		C40.6,51.2,46.4,51.1,52.2,51.1z"/>
</g>
<g>
	<g>
		<path class="st1" d="M136.4,41.1h-15.9v-9.8c0-2.8-0.2-4.6-0.5-5.3c-0.3-0.7-1.1-1.1-2.2-1.1c-1.3,0-2.1,0.4-2.5,1.3
			c-0.4,0.9-0.5,2.7-0.5,5.6V58c0,2.7,0.2,4.5,0.5,5.4c0.4,0.8,1.1,1.3,2.4,1.3c1.2,0,2-0.4,2.3-1.3c0.4-0.8,0.5-2.8,0.5-5.9v-7.1
			h15.9v2.2c0,5.8-0.4,10-1.3,12.4c-0.9,2.4-2.9,4.6-5.9,6.4c-3.1,1.8-6.8,2.8-11.3,2.8c-4.6,0-8.5-0.8-11.5-2.3s-5-3.7-6-6.5
			c-1-2.8-1.5-6.9-1.5-12.4V36.5c0-4.1,0.2-7.1,0.5-9.1c0.3-2,1.2-4,2.7-5.9c1.5-1.9,3.6-3.4,6.2-4.4c2.6-1.1,5.7-1.6,9.1-1.6
			c4.7,0,8.5,0.8,11.6,2.5c3,1.7,5,3.7,6,6.2c1,2.5,1.4,6.4,1.4,11.6V41.1z"/>
		<path class="st1" d="M176,43v11.3c0,4.2-0.2,7.2-0.7,9.1c-0.5,1.9-1.4,3.7-2.9,5.4c-1.5,1.7-3.4,2.9-5.7,3.7c-2.3,0.8-5,1.2-8,1.2
			c-3.4,0-6.2-0.3-8.6-1c-2.3-0.7-4.2-1.7-5.4-3.1c-1.3-1.4-2.2-3.1-2.8-5c-0.6-2-0.8-4.9-0.8-8.8V44c0-4.3,0.5-7.6,1.5-10.1
			c1-2.4,2.8-4.4,5.4-5.8c2.6-1.5,6-2.2,10-2.2c3.4,0,6.3,0.5,8.8,1.4c2.4,0.9,4.3,2.2,5.7,3.7c1.3,1.5,2.2,3.1,2.7,4.7
			S176,39.7,176,43z M160.8,39.5c0-2.4-0.1-3.9-0.4-4.5c-0.3-0.6-0.9-0.9-1.8-0.9c-0.9,0-1.5,0.3-1.8,0.9c-0.3,0.6-0.5,2.1-0.5,4.5
			v20.9c0,2.2,0.2,3.6,0.5,4.3c0.3,0.7,0.9,1,1.8,1c0.9,0,1.5-0.3,1.8-0.9c0.3-0.6,0.4-1.9,0.4-3.9V39.5z"/>
		<path class="st1" d="M196.7,16.6v56.4H181V16.6H196.7z"/>
		<path class="st1" d="M217.8,16.6v56.4h-15.7V16.6H217.8z"/>
		<path class="st1" d="M236.9,44.6h-14.3v-3.1c0-3.6,0.4-6.3,1.3-8.3c0.9-1.9,2.7-3.6,5.4-5.1c2.7-1.5,6.2-2.2,10.5-2.2
			c5.1,0,9,0.8,11.6,2.5c2.6,1.7,4.2,3.7,4.7,6.2c0.5,2.4,0.8,7.5,0.8,15.1v23.2h-14.8v-4.1c-0.9,1.7-2.1,2.9-3.6,3.7
			c-1.5,0.8-3.2,1.2-5.3,1.2c-2.7,0-5.1-0.7-7.3-2.1c-2.2-1.4-3.3-4.4-3.3-9.1v-3.8c0-3.5,0.6-5.8,1.8-7.1c1.2-1.3,4.1-2.7,8.8-4.4
			c5-1.8,7.7-3,8-3.7c0.4-0.6,0.5-1.9,0.5-3.8c0-2.4-0.2-4-0.6-4.7c-0.4-0.7-1-1.1-1.9-1.1c-1,0-1.7,0.3-1.9,0.9
			c-0.3,0.6-0.4,2.2-0.4,4.8V44.6z M241.7,51c-2.4,1.6-3.8,3-4.2,4.1c-0.4,1.1-0.6,2.7-0.6,4.8c0,2.4,0.2,3.9,0.5,4.6
			c0.3,0.7,1,1,2,1c1,0,1.6-0.3,1.9-0.8c0.3-0.5,0.4-2,0.4-4.3V51z"/>
		<path class="st1" d="M296.8,16.6v56.4h-15.2v-3.4c-1.5,1.4-3,2.4-4.6,3.1c-1.6,0.7-3.3,1-5,1c-2.4,0-4.4-0.6-6.1-1.7
			c-1.7-1.1-2.8-2.5-3.3-4c-0.5-1.5-0.7-4-0.7-7.4V39.1c0-3.6,0.2-6.1,0.7-7.6c0.5-1.5,1.6-2.8,3.4-3.9c1.8-1.1,3.9-1.7,6.3-1.7
			c1.9,0,3.6,0.3,5.2,0.9c1.6,0.6,3,1.6,4.3,2.8V16.6H296.8z M281.6,38.4c0-1.7-0.2-2.8-0.5-3.4c-0.3-0.6-0.9-0.9-1.9-0.9
			c-0.9,0-1.5,0.3-1.8,0.8c-0.3,0.5-0.5,1.7-0.5,3.5V61c0,1.9,0.2,3.1,0.5,3.7c0.3,0.6,0.9,0.9,1.7,0.9c1,0,1.6-0.3,2-1
			c0.3-0.7,0.5-2.3,0.5-4.9V38.4z"/>
		<path class="st1" d="M336.7,43v11.3c0,4.2-0.2,7.2-0.7,9.1c-0.5,1.9-1.4,3.7-2.9,5.4c-1.5,1.7-3.4,2.9-5.7,3.7
			c-2.3,0.8-5,1.2-8,1.2c-3.4,0-6.2-0.3-8.6-1c-2.3-0.7-4.2-1.7-5.4-3.1c-1.3-1.4-2.2-3.1-2.8-5c-0.6-2-0.8-4.9-0.8-8.8V44
			c0-4.3,0.5-7.6,1.5-10.1c1-2.4,2.8-4.4,5.4-5.8c2.6-1.5,6-2.2,10-2.2c3.4,0,6.3,0.5,8.8,1.4c2.4,0.9,4.3,2.2,5.7,3.7
			c1.3,1.5,2.2,3.1,2.7,4.7C336.5,37.3,336.7,39.7,336.7,43z M321.5,39.5c0-2.4-0.1-3.9-0.4-4.5c-0.3-0.6-0.9-0.9-1.8-0.9
			s-1.5,0.3-1.8,0.9c-0.3,0.6-0.5,2.1-0.5,4.5v20.9c0,2.2,0.2,3.6,0.5,4.3c0.3,0.7,0.9,1,1.8,1c0.9,0,1.5-0.3,1.8-0.9
			c0.3-0.6,0.4-1.9,0.4-3.9V39.5z"/>
	</g>
</g>
<g>
	<g>
		<path class="st0" d="M2.8,88.5h23.7v2.3h-9.5V93h8.9v2.2h-8.9v2.5h10.4v2.3H2.8V88.5z"/>
		<path class="st0" d="M63.3,88.5V100H50.9l-7.4-5.2v5.2H31.6V88.5h11.9l8,5.2v-5.2H63.3z"/>
		<path class="st0" d="M101.6,92.7H87.4v-1c0-0.7-0.1-1.1-0.4-1.2c-0.3-0.2-0.9-0.2-1.9-0.2c-0.9,0-1.5,0.1-1.8,0.2
			c-0.3,0.1-0.5,0.5-0.5,1.1V97c0,0.5,0.2,0.9,0.5,1c0.3,0.2,0.9,0.2,1.9,0.2c1,0,1.7-0.1,2.1-0.3c0.4-0.2,0.6-0.5,0.6-1.1v-1.4H85
			v-1.7h16.6v6.2h-8.9l-1.3-0.8c-1,0.4-2.2,0.6-3.7,0.8c-1.5,0.2-3.2,0.3-5.2,0.3c-2.4,0-4.6-0.1-6.7-0.4c-2.1-0.2-3.7-0.5-4.7-0.9
			c-1.1-0.4-1.8-0.7-2-1.1c-0.3-0.4-0.4-1-0.4-1.8v-3.4c0-1.1,0.3-1.9,0.8-2.4c0.6-0.5,2.2-1,4.8-1.4c2.7-0.4,6.1-0.6,10.4-0.6
			c4.2,0,7.6,0.2,10.4,0.5c2.7,0.4,4.5,0.8,5.4,1.3c0.8,0.5,1.2,1.2,1.2,2.2V92.7z"/>
		<path class="st0" d="M121.4,88.5V100h-14.2V88.5H121.4z"/>
		<path class="st0" d="M158.8,88.5V100h-12.5l-7.4-5.2v5.2h-11.9V88.5H139l8,5.2v-5.2H158.8z"/>
		<path class="st0" d="M164.5,88.5h23.7v2.3h-9.5V93h8.9v2.2h-8.9v2.5h10.4v2.3h-24.7V88.5z"/>
		<path class="st0" d="M193.3,88.5H217v2.3h-9.5V93h8.9v2.2h-8.9v2.5h10.4v2.3h-24.7V88.5z"/>
		<path class="st0" d="M222,88.5h10.1c6.7,0,11.3,0.1,13.6,0.2s4.3,0.4,5.8,0.8c1.5,0.4,2.2,1.2,2.2,2.1c0,0.9-0.5,1.5-1.6,1.8
			c-1.1,0.3-3.1,0.5-6.2,0.6c2.8,0.1,4.7,0.3,5.7,0.6c1,0.2,1.6,0.5,1.8,0.7c0.2,0.2,0.4,0.8,0.4,1.7v3h-13.2v-3.8
			c0-0.6-0.2-1-0.7-1.1c-0.5-0.1-1.7-0.2-3.6-0.2v5.2H222V88.5z M236.2,90.5V93c1.6,0,2.7,0,3.4-0.1c0.6-0.1,1-0.4,1-0.9v-0.6
			c0-0.4-0.3-0.6-0.9-0.7C239,90.5,237.9,90.5,236.2,90.5z"/>
		<path class="st0" d="M273.5,88.5V100h-14.2V88.5H273.5z"/>
		<path class="st0" d="M310.9,88.5V100h-12.5l-7.4-5.2v5.2h-11.9V88.5h11.9l8,5.2v-5.2H310.9z"/>
		<path class="st0" d="M349.2,92.7H335v-1c0-0.7-0.1-1.1-0.4-1.2c-0.3-0.2-0.9-0.2-1.9-0.2c-0.9,0-1.5,0.1-1.8,0.2
			c-0.3,0.1-0.5,0.5-0.5,1.1V97c0,0.5,0.2,0.9,0.5,1c0.3,0.2,0.9,0.2,1.9,0.2c1,0,1.7-0.1,2.1-0.3c0.4-0.2,0.6-0.5,0.6-1.1v-1.4
			h-2.9v-1.7h16.6v6.2h-8.9l-1.3-0.8c-1,0.4-2.2,0.6-3.7,0.8c-1.5,0.2-3.2,0.3-5.2,0.3c-2.4,0-4.6-0.1-6.7-0.4
			c-2.1-0.2-3.7-0.5-4.7-0.9c-1.1-0.4-1.8-0.7-2-1.1c-0.3-0.4-0.4-1-0.4-1.8v-3.4c0-1.1,0.3-1.9,0.8-2.4c0.6-0.5,2.2-1,4.8-1.4
			c2.7-0.4,6.1-0.6,10.4-0.6c4.2,0,7.6,0.2,10.4,0.5c2.7,0.4,4.5,0.8,5.4,1.3c0.8,0.5,1.2,1.2,1.2,2.2V92.7z"/>
	</g>
</g>
</svg>
